<?xml version="1.0" encoding="utf-8"?>
<!-- Generator: Adobe Illustrator 24.2.1, SVG Export Plug-In . SVG Version: 6.00 Build 0)  -->
<svg version="1.1" id="Capa_1" xmlns="http://www.w3.org/2000/svg" xmlns:xlink="http://www.w3.org/1999/xlink" x="0px" y="0px"
	 viewBox="0 0 61.88 62.65" style="enable-background:new 0 0 61.88 62.65;" xml:space="preserve">
<g>
	<g>
		<g>
			<path d="M0.68,18.68h20.74c7.7,0,12.58,3.32,14.65,9.96c0.21,1.09,0.37,2.16,0.47,3.21c0,5.08-2.58,9.09-7.73,12.02
				c-1.95,0.84-4.22,1.26-6.8,1.26h-3.4l8.91,17.41l-0.23,0.11h-0.94c-0.16,0-3.16-5.84-9.02-17.52H0.68
				c-0.16,0-0.23-0.08-0.23-0.23v-0.57c0.02-0.15,0.1-0.23,0.23-0.23h21.21c6.66,0,11-2.94,13.01-8.82c0.29-0.99,0.49-2.1,0.59-3.32
				c0-4.75-2.42-8.45-7.27-11.11c-1.56-0.76-3.87-1.15-6.91-1.15H0.68c-0.16,0-0.23-0.08-0.23-0.23v-0.57
				C0.46,18.76,0.54,18.68,0.68,18.68z"/>
		</g>
	</g>
	<g>
		<path d="M17.76,2.5c0.13-0.03,0.25,0,0.35,0.07c0.11,0.07,0.17,0.17,0.2,0.3c0.02,0.13,0,0.24-0.07,0.35s-0.17,0.17-0.3,0.2
			c-0.13,0.02-0.24,0-0.35-0.07c-0.11-0.07-0.17-0.17-0.2-0.3c-0.03-0.13,0-0.24,0.07-0.35C17.53,2.59,17.63,2.52,17.76,2.5z"/>
		<path d="M21.62,4.23l-0.01-0.15c0.05-0.02,0.12-0.07,0.21-0.13c0.04-0.03,0.07-0.05,0.08-0.06c0.01-0.01,0.01-0.02,0.01-0.03
			c0.01-0.05,0.01-0.23,0-0.53c-0.01-0.3-0.02-0.67-0.04-1.09c-0.03-0.62-0.05-1.01-0.06-1.16c-0.03-0.37-0.05-0.58-0.07-0.64
			c-0.01-0.02-0.02-0.04-0.05-0.05c-0.05-0.03-0.2-0.04-0.46-0.04l-0.01-0.26c0.25,0,0.54-0.01,0.86-0.02
			c0.36-0.02,0.7-0.04,1.02-0.07l0.01,0.26c-0.22,0.02-0.36,0.05-0.41,0.07c-0.02,0.01-0.04,0.03-0.04,0.06
			c-0.01,0.03-0.01,0.15-0.01,0.37c0,0.22,0.01,0.49,0.03,0.83c0,0.04,0.02,0.32,0.05,0.86c0.02,0.28,0.03,0.56,0.05,0.84
			s0.02,0.45,0.03,0.51c0.27,0,0.46,0,0.56-0.01c0.3-0.01,0.56-0.05,0.78-0.09c0.08-0.02,0.13-0.03,0.14-0.05
			c0.01-0.01,0.03-0.05,0.04-0.11c0.03-0.15,0.06-0.33,0.09-0.52L24.67,3c0,0.06,0,0.09,0,0.1l-0.04,0.6
			c-0.01,0.19-0.01,0.3-0.01,0.34c-0.06,0.02-0.11,0.03-0.17,0.04c-0.12,0.02-0.31,0.03-0.56,0.04c-0.04,0-0.27,0.01-0.7,0.02
			c-0.33,0.01-0.55,0.02-0.68,0.02C22.31,4.17,22.01,4.2,21.62,4.23z"/>
		<path d="M27.32,4.15l0.04-0.24c0.16,0.01,0.26,0.02,0.29,0.01c0.03,0,0.06-0.01,0.08-0.03c0.03-0.02,0.05-0.04,0.08-0.08
			c0.03-0.04,0.12-0.18,0.27-0.42c0.07-0.11,0.2-0.34,0.4-0.68l1.05-1.78l0.36-0.63l0.42,0.06l0.86,3.26l0.12,0.43l0.08,0.29
			c0.01,0.04,0.03,0.07,0.04,0.08c0.01,0.02,0.03,0.03,0.06,0.04c0.02,0.01,0.08,0.03,0.17,0.05c0.03,0.01,0.07,0.02,0.13,0.03
			L31.72,4.8l-0.81-0.14l-1.03-0.13l0.04-0.24c0.24,0.03,0.37,0.03,0.41,0.02c0.03-0.01,0.05-0.04,0.06-0.08
			c0.01-0.05,0-0.13-0.03-0.25l-0.16-0.68l-1.51-0.22L28.49,3.4c-0.14,0.26-0.21,0.42-0.22,0.48c-0.01,0.05,0,0.08,0.03,0.11
			c0.04,0.03,0.18,0.07,0.41,0.12l-0.04,0.24L28,4.24L27.32,4.15z M28.86,2.75c0.18,0.03,0.39,0.07,0.62,0.1
			c0.23,0.03,0.43,0.06,0.61,0.08l-0.4-1.61L28.86,2.75z"/>
		<path d="M39.53,3.27l0.11-0.22c0.04,0.02,0.18,0.1,0.42,0.22c0.12,0.06,0.28,0.15,0.5,0.26c0.19,0.09,0.35,0.17,0.48,0.23
			c0.22,0.1,0.41,0.19,0.55,0.26c0.28,0.14,0.48,0.27,0.59,0.37c0.12,0.11,0.19,0.25,0.23,0.43c0.03,0.17,0.01,0.35-0.09,0.53
			c-0.11,0.21-0.27,0.37-0.49,0.48c-0.22,0.11-0.49,0.14-0.82,0.11c0,0.1,0.01,0.21,0.03,0.32c0.01,0.11,0.02,0.18,0.02,0.2
			c0,0.02,0,0.04,0.01,0.07l0.1,0.83c0.03,0.22,0.04,0.34,0.04,0.35c0.04,0.24,0.07,0.39,0.09,0.44c0.01,0.05,0.03,0.08,0.05,0.11
			c0.02,0.03,0.07,0.06,0.16,0.11L41.4,8.6c-0.27-0.14-0.46-0.25-0.59-0.31c-0.14-0.07-0.28-0.14-0.43-0.2
			c0.01-0.04,0.01-0.1,0.01-0.18L40.3,6.68c-0.03-0.35-0.06-0.63-0.09-0.84c-0.02-0.11-0.04-0.19-0.08-0.26l0.07-0.07
			c0.21,0.11,0.38,0.17,0.51,0.18c0.13,0,0.27-0.04,0.41-0.13c0.14-0.09,0.25-0.22,0.33-0.38c0.08-0.16,0.11-0.32,0.09-0.46
			c-0.02-0.15-0.08-0.27-0.17-0.37C41.31,4.27,41.19,4.19,41,4.09c-0.08-0.04-0.17-0.08-0.26-0.11c-0.04,0.06-0.11,0.2-0.23,0.42
			c-0.26,0.5-0.44,0.83-0.52,0.99c-0.13,0.27-0.27,0.55-0.42,0.85c-0.18,0.37-0.28,0.58-0.3,0.63c-0.04,0.1-0.07,0.17-0.07,0.21
			c0,0.02,0.01,0.04,0.02,0.06c0.01,0.02,0.03,0.04,0.06,0.07c0.03,0.02,0.13,0.08,0.3,0.17l-0.12,0.23
			c-0.3-0.16-0.6-0.32-0.91-0.48C38.27,7,38.01,6.87,37.77,6.76l0.12-0.23c0.21,0.09,0.33,0.15,0.37,0.15c0.02,0.01,0.04,0,0.06,0
			c0.02-0.01,0.04-0.03,0.06-0.06c0.05-0.06,0.11-0.16,0.18-0.3l0.41-0.76l0.5-0.98L39.75,4c0.11-0.22,0.16-0.36,0.17-0.41
			c0-0.02,0-0.05-0.02-0.07C39.87,3.48,39.75,3.4,39.53,3.27z"/>
		<path d="M43.65,10.09l0.1-0.13c0.13,0.03,0.24,0.04,0.34,0.04c0.06-0.06,0.15-0.16,0.27-0.3c0.22-0.26,0.38-0.45,0.47-0.57
			l0.82-1.06c0.03-0.04,0.15-0.2,0.35-0.46c0.13-0.18,0.21-0.3,0.22-0.35c0-0.02,0-0.04-0.01-0.06c-0.03-0.05-0.13-0.15-0.31-0.3
			l0.15-0.2l0.54,0.43c0.11,0.09,0.21,0.17,0.31,0.24c0.21,0.17,0.45,0.35,0.72,0.55l0.49,0.36c0.06,0.04,0.17,0.14,0.34,0.28
			c0.02,0.01,0.04,0.04,0.07,0.07L48.5,8.68l-0.31,0.3C48.18,9,48.08,9.11,47.91,9.3l-0.18-0.14c0.14-0.19,0.22-0.31,0.24-0.36
			c0.01-0.03,0.01-0.05,0.01-0.07c-0.01-0.03-0.06-0.09-0.16-0.18c-0.14-0.14-0.29-0.26-0.44-0.38c-0.14-0.11-0.29-0.21-0.44-0.32
			c-0.16,0.16-0.34,0.38-0.56,0.65l-0.37,0.48c0.1,0.09,0.21,0.18,0.33,0.27c0.04,0.03,0.17,0.13,0.4,0.29
			c0.09,0.06,0.14,0.1,0.16,0.1c0.02,0,0.05-0.01,0.07-0.02c0.07-0.04,0.15-0.14,0.26-0.27l0.19,0.15l-0.41,0.51l-0.39,0.52
			l-0.2-0.16c0.14-0.18,0.22-0.3,0.23-0.36c0.01-0.05-0.01-0.09-0.06-0.14c-0.1-0.1-0.23-0.22-0.4-0.35
			c-0.15-0.12-0.28-0.21-0.39-0.28l-0.77,0.99c-0.09,0.11-0.16,0.21-0.22,0.29c0.12,0.11,0.27,0.23,0.44,0.36
			c0.17,0.13,0.33,0.25,0.48,0.35c0.15,0.1,0.25,0.15,0.3,0.16c0.01,0,0.04,0,0.06-0.02c0.09-0.05,0.23-0.17,0.42-0.36l0.19,0.15
			c-0.28,0.28-0.49,0.52-0.65,0.72l-0.05,0.01c-0.11-0.07-0.26-0.17-0.44-0.31l-0.37-0.3c-0.37-0.29-0.62-0.5-0.76-0.6
			C44.41,10.66,44.14,10.46,43.65,10.09z"/>
		<path d="M53.06,15.02l-0.15-0.18c0.05-0.04,0.12-0.11,0.21-0.19c0.06-0.06,0.11-0.12,0.15-0.17c0.01-0.08,0.01-0.15,0.01-0.22
			c-0.02-0.15-0.06-0.31-0.14-0.47c-0.07-0.16-0.18-0.32-0.32-0.48c-0.32-0.38-0.7-0.58-1.13-0.6c-0.43-0.03-0.84,0.14-1.25,0.49
			c-0.44,0.38-0.69,0.81-0.75,1.27c-0.06,0.46,0.06,0.87,0.36,1.21c0.09,0.1,0.18,0.19,0.28,0.27c0.1,0.08,0.21,0.14,0.33,0.2
			c0.04-0.03,0.13-0.09,0.24-0.19c0.12-0.1,0.19-0.15,0.21-0.18c0.14-0.12,0.22-0.2,0.24-0.24c0.01-0.02,0.01-0.06-0.01-0.09
			c-0.03-0.07-0.14-0.22-0.33-0.46l0.18-0.16l0.57,0.68l0.59,0.67l-0.15,0.13c-0.09-0.07-0.17-0.11-0.22-0.11
			c-0.03,0-0.08,0.03-0.15,0.08c-0.18,0.14-0.31,0.24-0.38,0.31c-0.11,0.1-0.22,0.21-0.33,0.32c-0.34-0.19-0.62-0.37-0.85-0.54
			c-0.22-0.17-0.42-0.36-0.6-0.57c-0.29-0.34-0.49-0.69-0.6-1.04c-0.08-0.25-0.1-0.5-0.09-0.74c0.02-0.24,0.07-0.45,0.16-0.65
			c0.14-0.3,0.34-0.57,0.62-0.82c0.24-0.2,0.47-0.35,0.71-0.43c0.24-0.08,0.47-0.12,0.71-0.1c0.24,0.01,0.47,0.06,0.69,0.15
			c0.22,0.09,0.42,0.2,0.6,0.35c0.18,0.14,0.37,0.32,0.54,0.52c0.22,0.26,0.4,0.51,0.55,0.77c0.14,0.26,0.24,0.48,0.29,0.65
			l-0.03,0.06C53.68,14.59,53.42,14.76,53.06,15.02z"/>
		<path d="M52.62,19.48l0.22-0.12c0.09,0.14,0.14,0.21,0.16,0.24c0.02,0.02,0.05,0.04,0.07,0.05c0.03,0.01,0.06,0.02,0.11,0.02
			c0.05,0,0.21-0.01,0.5-0.03c0.13-0.01,0.39-0.04,0.78-0.08l2.05-0.22l0.72-0.09l0.2,0.37l-2.1,2.64l-0.27,0.36l-0.18,0.23
			c-0.02,0.03-0.04,0.06-0.04,0.09c-0.01,0.02-0.01,0.05,0,0.07c0,0.02,0.03,0.08,0.06,0.16c0.01,0.03,0.03,0.07,0.05,0.12
			l-0.22,0.12l-0.38-0.74l-0.51-0.91l0.22-0.12c0.12,0.21,0.2,0.32,0.23,0.34c0.03,0.02,0.06,0.02,0.1,0
			c0.04-0.02,0.1-0.08,0.18-0.18l0.45-0.53l-0.72-1.34l-0.38,0.05c-0.29,0.04-0.46,0.08-0.52,0.11c-0.04,0.02-0.06,0.05-0.07,0.09
			c0,0.06,0.05,0.19,0.15,0.4l-0.22,0.12l-0.31-0.61L52.62,19.48z M54.66,19.87c0.08,0.17,0.18,0.35,0.29,0.56
			c0.11,0.2,0.21,0.38,0.3,0.53l1.05-1.29L54.66,19.87z"/>
		<path d="M55.73,25.99l0.14-0.04c0.04,0.04,0.09,0.1,0.17,0.17c0.03,0.03,0.06,0.05,0.08,0.06c0.01,0,0.02,0.01,0.04,0
			c0.05-0.01,0.22-0.05,0.52-0.13c0.29-0.08,0.64-0.18,1.05-0.31c0.6-0.18,0.97-0.3,1.11-0.34c0.35-0.12,0.55-0.19,0.6-0.22
			c0.02-0.01,0.03-0.03,0.04-0.06c0.01-0.05-0.01-0.2-0.08-0.45l0.25-0.08c0.06,0.24,0.14,0.52,0.24,0.83
			c0.1,0.35,0.21,0.67,0.32,0.98l-0.25,0.08c-0.08-0.21-0.13-0.34-0.17-0.38c-0.02-0.02-0.04-0.03-0.07-0.03s-0.15,0.03-0.36,0.08
			c-0.21,0.05-0.48,0.13-0.79,0.23c-0.03,0.01-0.31,0.09-0.82,0.25c-0.27,0.08-0.54,0.17-0.8,0.25c-0.27,0.08-0.43,0.13-0.48,0.15
			c0.07,0.27,0.12,0.44,0.15,0.54c0.09,0.29,0.18,0.53,0.28,0.74c0.03,0.07,0.06,0.12,0.08,0.13c0.02,0.01,0.06,0.02,0.12,0.02
			c0.16-0.01,0.33-0.02,0.53-0.04l0.07,0.24c-0.05,0.01-0.09,0.02-0.1,0.02l-0.6,0.1c-0.19,0.04-0.3,0.06-0.33,0.07
			c-0.03-0.05-0.06-0.1-0.08-0.16c-0.05-0.11-0.1-0.29-0.18-0.53c-0.01-0.03-0.07-0.26-0.19-0.67c-0.09-0.31-0.15-0.53-0.19-0.66
			C55.95,26.64,55.86,26.36,55.73,25.99z"/>
		<path d="M57.2,31.75l0.16-0.02c0.07,0.11,0.14,0.2,0.21,0.27c0.08,0,0.22,0,0.4-0.02c0.34-0.02,0.59-0.04,0.74-0.06l1.33-0.15
			c0.05-0.01,0.24-0.03,0.57-0.08c0.22-0.03,0.36-0.06,0.4-0.09c0.02-0.01,0.03-0.03,0.04-0.05c0.02-0.06,0.02-0.2,0-0.43l0.25-0.03
			l0.06,0.69c0.01,0.14,0.03,0.27,0.04,0.39c0.03,0.27,0.07,0.57,0.11,0.9l0.08,0.6c0.01,0.07,0.02,0.21,0.04,0.43
			c0,0.02,0,0.05-0.01,0.1l-0.04,0.02l-0.43-0.01c-0.03,0-0.17,0.01-0.43,0.02L60.72,34c0.23-0.03,0.37-0.06,0.43-0.08
			c0.03-0.01,0.05-0.02,0.06-0.04c0.01-0.03,0.02-0.11,0.02-0.24c0-0.2-0.01-0.39-0.03-0.58c-0.02-0.17-0.05-0.35-0.08-0.53
			c-0.22,0-0.51,0.02-0.85,0.06l-0.61,0.07c0.01,0.13,0.02,0.27,0.03,0.42c0,0.05,0.03,0.21,0.07,0.49
			c0.01,0.11,0.03,0.17,0.04,0.19c0.01,0.02,0.04,0.03,0.07,0.04c0.08,0.01,0.2,0.01,0.38,0l0.03,0.24l-0.65,0.06l-0.64,0.09
			l-0.03-0.25c0.23-0.02,0.37-0.06,0.42-0.09c0.04-0.03,0.06-0.07,0.06-0.14c0.01-0.14,0-0.31-0.03-0.53
			c-0.02-0.19-0.05-0.35-0.07-0.47l-1.25,0.15c-0.14,0.02-0.26,0.03-0.36,0.05c0.01,0.16,0.02,0.35,0.05,0.57
			c0.03,0.21,0.05,0.41,0.09,0.59c0.03,0.18,0.07,0.29,0.1,0.33c0.01,0.01,0.03,0.02,0.06,0.03c0.1,0.02,0.28,0.04,0.55,0.05
			l0.03,0.24c-0.39,0-0.72,0.02-0.97,0.05l-0.04-0.03c-0.03-0.12-0.06-0.3-0.08-0.53l-0.05-0.48c-0.05-0.47-0.08-0.79-0.1-0.97
			C57.33,32.68,57.29,32.36,57.2,31.75z"/>
		<path d="M61.55,37.86l0.24,0.02c0,0.05-0.02,0.2-0.05,0.47c-0.01,0.13-0.03,0.32-0.05,0.56c-0.02,0.21-0.02,0.39-0.03,0.53
			c-0.01,0.25-0.02,0.45-0.03,0.61c-0.02,0.31-0.06,0.54-0.12,0.69c-0.06,0.15-0.16,0.28-0.31,0.37c-0.15,0.1-0.32,0.14-0.52,0.12
			c-0.24-0.02-0.45-0.11-0.64-0.27c-0.18-0.16-0.32-0.4-0.41-0.72c-0.09,0.04-0.19,0.09-0.29,0.15c-0.1,0.06-0.16,0.09-0.18,0.1
			c-0.02,0.01-0.04,0.02-0.06,0.03l-0.72,0.41c-0.19,0.11-0.3,0.17-0.31,0.18c-0.21,0.13-0.33,0.22-0.37,0.25
			c-0.04,0.03-0.06,0.06-0.08,0.09c-0.02,0.03-0.03,0.09-0.04,0.19l-0.25-0.02c0.03-0.3,0.05-0.52,0.06-0.66
			c0.01-0.16,0.02-0.32,0.02-0.47c0.04-0.01,0.1-0.03,0.17-0.06l1.09-0.56c0.31-0.16,0.56-0.3,0.74-0.41
			c0.09-0.06,0.16-0.11,0.21-0.17l0.09,0.04c-0.03,0.24-0.02,0.42,0.03,0.54c0.05,0.13,0.14,0.23,0.28,0.33
			c0.14,0.09,0.3,0.15,0.48,0.16c0.18,0.01,0.34-0.02,0.46-0.1c0.13-0.08,0.22-0.18,0.28-0.3c0.04-0.08,0.06-0.23,0.08-0.44
			c0.01-0.09,0.01-0.19,0-0.28c-0.07-0.01-0.23-0.03-0.48-0.05c-0.56-0.05-0.93-0.09-1.12-0.1c-0.3-0.02-0.61-0.04-0.94-0.06
			c-0.41-0.02-0.64-0.03-0.7-0.03c-0.11,0-0.18,0-0.22,0.02c-0.02,0.01-0.03,0.02-0.05,0.04c-0.01,0.02-0.03,0.04-0.04,0.08
			c-0.01,0.04-0.03,0.15-0.04,0.34l-0.26-0.02c0.04-0.34,0.07-0.68,0.09-1.02c0.02-0.31,0.04-0.59,0.05-0.86l0.26,0.02
			c-0.01,0.23-0.01,0.36,0,0.4c0,0.02,0.01,0.04,0.03,0.05c0.01,0.01,0.04,0.02,0.08,0.03c0.08,0.02,0.19,0.04,0.35,0.06l0.86,0.09
			l1.1,0.08l0.63,0.03c0.25,0.01,0.4,0.01,0.45,0c0.02-0.01,0.04-0.02,0.05-0.04C61.48,38.25,61.51,38.1,61.55,37.86z"/>
		<path d="M60.39,47.06l-0.25-0.06c0.04-0.2,0.06-0.31,0.07-0.35c0-0.04,0-0.07-0.01-0.09c-0.01-0.02-0.02-0.03-0.04-0.04
			c-0.03-0.02-0.09-0.05-0.18-0.08c-0.05-0.02-0.14-0.04-0.28-0.08c-0.47-0.13-0.72-0.19-0.76-0.2l-1.16-0.29l-0.53-0.12
			c-0.2-0.05-0.33-0.07-0.39-0.07c-0.03,0-0.05,0.01-0.07,0.02c-0.02,0.01-0.04,0.04-0.06,0.08c-0.02,0.04-0.05,0.15-0.1,0.34
			l-0.25-0.06c0.09-0.31,0.18-0.64,0.27-1c0.08-0.31,0.14-0.59,0.19-0.83l0.25,0.06c-0.04,0.2-0.07,0.32-0.07,0.35
			c0,0.04,0,0.07,0.01,0.09c0.01,0.02,0.02,0.03,0.04,0.04c0.02,0.01,0.11,0.04,0.27,0.09c0.23,0.07,0.44,0.13,0.63,0.18l1.21,0.3
			c0.38,0.1,0.63,0.16,0.74,0.18c0.25,0.05,0.4,0.08,0.47,0.08c0.03,0,0.05,0,0.06-0.01c0.02-0.01,0.03-0.03,0.05-0.06
			c0.02-0.03,0.06-0.15,0.12-0.36l0.25,0.06c-0.07,0.24-0.15,0.52-0.23,0.83C60.54,46.41,60.46,46.74,60.39,47.06z M60.96,45.97
			l0.09-0.35l0.65,0.88c0.1,0.13,0.15,0.23,0.17,0.29c0.02,0.07,0.02,0.14,0,0.21c-0.02,0.1-0.07,0.17-0.15,0.22
			c-0.07,0.05-0.15,0.06-0.23,0.04c-0.06-0.01-0.1-0.04-0.14-0.09c-0.06-0.07-0.11-0.19-0.15-0.35L60.96,45.97z"/>
		<path d="M55.61,48.54l0.22,0.1c-0.06,0.15-0.08,0.24-0.09,0.27c0,0.03,0,0.06,0.01,0.09c0.01,0.03,0.03,0.06,0.05,0.1
			c0.03,0.04,0.14,0.16,0.33,0.37c0.09,0.1,0.27,0.29,0.54,0.57l1.43,1.49l0.51,0.52l-0.17,0.38l-3.37-0.06l-0.45,0l-0.3,0
			c-0.04,0-0.07,0.01-0.09,0.02c-0.02,0.01-0.04,0.02-0.06,0.04c-0.02,0.02-0.05,0.07-0.09,0.15c-0.02,0.03-0.04,0.06-0.07,0.11
			l-0.22-0.1l0.36-0.75l0.41-0.96l0.22,0.1c-0.09,0.22-0.13,0.35-0.13,0.39c0,0.03,0.02,0.06,0.06,0.08
			c0.05,0.02,0.13,0.03,0.25,0.04l0.7,0.04l0.63-1.39l-0.27-0.27c-0.21-0.2-0.34-0.32-0.41-0.35c-0.04-0.02-0.08-0.02-0.11,0
			c-0.04,0.03-0.12,0.15-0.22,0.37l-0.23-0.1l0.3-0.62L55.61,48.54z M56.53,50.4c-0.08,0.17-0.17,0.36-0.27,0.57
			c-0.09,0.21-0.17,0.39-0.24,0.56l1.66,0.05L56.53,50.4z"/>
		<path d="M54,56.56c-0.07,0.11-0.17,0.18-0.3,0.2c-0.13,0.02-0.24,0-0.35-0.07s-0.17-0.17-0.2-0.3c-0.02-0.13,0-0.24,0.07-0.35
			c0.07-0.11,0.17-0.17,0.3-0.2c0.13-0.03,0.24,0,0.35,0.07s0.17,0.17,0.2,0.3C54.1,56.34,54.07,56.46,54,56.56z"/>
	</g>
	<rect y="18.68" width="0.89" height="38.06"/>
</g>
</svg>
