<?xml version="1.0" standalone="no"?>
<!DOCTYPE svg PUBLIC "-//W3C//DTD SVG 1.1//EN" "http://www.w3.org/Graphics/SVG/1.1/DTD/svg11.dtd">
<svg xmlns="http://www.w3.org/2000/svg" xmlns:xlink="http://www.w3.org/1999/xlink" version="1.1" id="Capa_1" x="0px" y="0px" viewBox="0 0 1080 1080" style="enable-background:new 0 0 1080 1080;" xml:space="preserve" width="1080" height="1080">
<style type="text/css">
	.st0{stroke:#000000;stroke-width:0.5;stroke-miterlimit:10;}
	.st1{stroke:#000000;stroke-miterlimit:60;}
	.st2{fill:#FFFFFF;stroke:#FFFFFF;stroke-width:0.5;stroke-miterlimit:10;}
	.st3{fill:#FFFFFF;stroke:#FFFFFF;stroke-miterlimit:60;}
	.st4{fill:#FFFFFF;}
	.st5{fill:#706F6E;stroke:#706F6E;stroke-width:0.5;stroke-miterlimit:10;}
	.st6{fill:#706F6E;stroke:#706F6E;stroke-miterlimit:60;}
	.st7{fill:#706F6E;}
	.st8{fill:#BCBBB9;stroke:#BCBBB9;stroke-width:0.5;stroke-miterlimit:10;}
	.st9{fill:#BCBBB9;stroke:#BCBBB9;stroke-miterlimit:60;}
	.st10{fill:#BCBBB9;}
</style>
<path class="st5" d="M99.19,603.7c0-121.18,0-242.37,0-363.55c17.82,0,35.64,0,53.46,0c0,62.37,0,124.75,0,187.12  c17.82-14.26,35.64-28.51,53.46-42.77c26.73,0,53.46,0,80.2,0c-39.21,35.64-78.41,71.29-117.62,106.93  c39.21,37.42,78.41,74.85,117.62,112.27c-26.73,0-53.46,0-80.2,0c-17.11-15.4-34.22-30.8-51.34-46.2c-0.71-0.64-1.42-1.28-2.13-1.91  v48.12C152.66,603.7,99.19,603.7,99.19,603.7z"/>
<path class="st5" d="M307.7,384.49c17.82,0,35.64,0,53.46,0c0,40.99,0,81.98,0,122.97c0.33,6.26,1.9,19.3,10.69,32.08  c11.25,16.35,31.38,27.98,53.46,26.73c20.34-1.15,33.64-12.65,37.42-16.04c18.21-16.28,20.88-37.55,21.39-42.77  c0-40.99,0-81.98,0-122.97c19.6,0,39.21,0,58.81,0c0,74.85,0,149.7,0,224.55c-14.26,0-21.39,0-21.39,0l0,0  c0,0-7.33-5.49-21.39-16.04c-6.1,4.78-15.02,10.87-26.73,16.04c-23.36,10.31-43.62,10.67-48.12,10.69  c-42.85,0.18-72.59-25.14-80.2-32.08c-6.04-5.51-23.3-21.62-32.08-48.12c-4.6-13.88-5.1-25.25-5.35-32.08  C305.95,459.35,307.14,405.63,307.7,384.49z"/>
<path class="st6" d="M575.02,384.49c0,74.85,0,149.7,0,224.55c17.82,0,35.64,0,53.46,0c0-42.77,0-85.54,0-128.31  c1.02-5.88,5.02-24.35,21.39-37.42c2.16-1.73,9.75-7.53,21.39-10.69c5.51-1.5,17.77-4,32.08,0c4.43,1.24,20.13,6.04,32.08,21.39  c6.38,8.2,9.3,16.32,10.69,21.39c0,44.55,0,89.11,0,133.66c21.39,0,42.77,0,64.16,0c0-19.6,0-39.21,0-58.81c0-14.26,0-28.51,0-42.77  c0-10.69,0-21.39,0-32.08c0.72-5.7,3.44-20.87,16.04-32.08c16.43-14.62,37.81-11.84,48.12-10.69c8.53,0.95,24.39,3.11,37.42,16.04  c18.53,18.39,16.44,44.06,16.04,48.12c0,37.42,0,74.85,0,112.27c35.03,0,53.46,0,53.46,0c-0.67-47.44-0.39-82.9,0-106.93  c0.26-16.26,0.62-30.33-5.35-48.12c-1.84-5.47-11.21-31.56-37.42-53.46c-8.32-6.95-28.29-23.19-58.81-26.73  c-34.05-3.95-59.71,10.39-69.5,16.04c-14.93,8.63-25.15,18.77-31.31,25.84c-0.26,0.3-0.51,0.59-0.77,0.89  c-5.74-7.19-16.06-18.22-32.08-26.73c-14.19-7.55-26.81-9.9-32.08-10.69c-6.65-1-13.89-1.38-66.57,4.42  c-3.54,0.39-6.43,0.71-8.28,0.92c-10.69,0-21.39,0-32.08,0C596.41,384.49,585.71,384.49,575.02,384.49z"/>
<path class="st7" d="M61.81,712.88c-1.89,0-3.56-0.34-5.03-1.04c-1.47-0.69-2.87-1.86-4.2-3.5c-0.29-0.32-0.5-0.68-0.65-1.1  c-0.14-0.41-0.21-0.83-0.21-1.26c0-0.67,0.18-1.28,0.55-1.82c0.37-0.53,0.83-0.8,1.38-0.8c0.42,0,0.81,0.19,1.18,0.58  c0.99,1.25,2.03,2.19,3.12,2.84c1.09,0.64,2.36,0.96,3.83,0.96c1.05,0,2.01-0.23,2.89-0.69c0.88-0.46,1.58-1.09,2.1-1.87  c0.52-0.78,0.78-1.69,0.78-2.73c-0.03-1.28-0.3-2.33-0.82-3.16c-0.52-0.82-1.29-1.51-2.3-2.08c-1.01-0.57-2.22-1.03-3.63-1.39  c-1.31-0.36-2.49-0.82-3.54-1.39c-1.05-0.57-1.93-1.29-2.65-2.17c-0.72-0.87-1.28-1.92-1.67-3.13c-0.39-1.21-0.59-2.6-0.59-4.17  c0-2.17,0.42-4.05,1.26-5.64c0.84-1.59,1.98-2.81,3.42-3.67c1.44-0.85,3.06-1.28,4.87-1.28c1.65,0,3.2,0.34,4.64,1.04  c1.44,0.69,2.6,1.63,3.49,2.81c0.63,0.75,0.94,1.55,0.94,2.41c0,0.67-0.19,1.28-0.57,1.82c-0.38,0.53-0.82,0.8-1.32,0.8  c-0.37,0-0.68-0.14-0.94-0.42c-0.42-0.61-0.98-1.15-1.69-1.63c-0.71-0.48-1.46-0.88-2.26-1.2c-0.8-0.32-1.56-0.48-2.3-0.48  c-1.18,0-2.19,0.22-3.02,0.67c-0.84,0.44-1.48,1.05-1.92,1.82c-0.45,0.77-0.67,1.68-0.67,2.75c0,1.21,0.26,2.2,0.77,2.97  c0.51,0.77,1.22,1.39,2.14,1.87c0.92,0.48,1.96,0.92,3.14,1.31c1.44,0.43,2.73,0.91,3.87,1.44c1.14,0.54,2.1,1.22,2.89,2.06  c0.78,0.84,1.39,1.88,1.81,3.13c0.42,1.25,0.63,2.8,0.63,4.65c0,2.14-0.45,4.01-1.34,5.62c-0.89,1.6-2.06,2.85-3.52,3.74  C65.21,712.44,63.59,712.88,61.81,712.88z"/>
<path class="st7" d="M127.22,675.46h13.55c0.58,0,1.05,0.25,1.43,0.75c0.38,0.5,0.57,1.12,0.57,1.87c0,0.75-0.19,1.35-0.57,1.82  s-0.86,0.69-1.43,0.69h-11.82l0.39-0.91v11.98l-0.35-0.54h10.01c0.58,0,1.05,0.25,1.43,0.75c0.38,0.5,0.57,1.14,0.57,1.92  c0,0.75-0.19,1.36-0.57,1.82c-0.38,0.46-0.86,0.7-1.43,0.7h-9.94l0.27-0.49v12.35l-0.27-0.43h11.7c0.58,0,1.05,0.26,1.43,0.77  c0.38,0.52,0.57,1.12,0.57,1.79c0,0.75-0.19,1.37-0.57,1.85s-0.86,0.72-1.43,0.72h-13.55c-0.58,0-1.05-0.26-1.43-0.77  c-0.38-0.52-0.57-1.17-0.57-1.95v-31.97c0-0.78,0.19-1.43,0.57-1.95C126.17,675.72,126.65,675.46,127.22,675.46z"/>
<path class="st7" d="M212.75,675.46c0.41,0,0.75,0.24,1,0.72c0.26,0.48,0.39,1.08,0.39,1.79v32.19c0,0.78-0.15,1.44-0.45,1.95  c-0.3,0.52-0.68,0.77-1.13,0.77c-0.23,0-0.45-0.07-0.68-0.21c-0.23-0.14-0.4-0.34-0.53-0.59l-12.7-28.44l0.71-0.75v27.54  c0,0.68-0.13,1.26-0.4,1.74c-0.27,0.48-0.61,0.72-1.02,0.72c-0.43,0-0.78-0.24-1.04-0.72c-0.26-0.48-0.39-1.06-0.39-1.74v-32.24  c0-0.78,0.15-1.43,0.45-1.95c0.3-0.51,0.67-0.77,1.13-0.77c0.23,0,0.47,0.08,0.73,0.24c0.26,0.16,0.45,0.4,0.57,0.72l12.39,27.91  l-0.46,0.75v-27.11c0-0.71,0.13-1.31,0.39-1.79C211.97,675.7,212.32,675.46,212.75,675.46z"/>
<path class="st7" d="M268.89,680.59c-0.55,0-1.02-0.24-1.41-0.72s-0.59-1.1-0.59-1.84c0-0.79,0.2-1.41,0.59-1.87  s0.86-0.69,1.41-0.69h17.83c0.58,0,1.05,0.24,1.43,0.72s0.57,1.1,0.57,1.85c0,0.78-0.19,1.4-0.57,1.87s-0.86,0.69-1.43,0.69H268.89z   M277.8,712.88c-0.63,0-1.14-0.26-1.53-0.77c-0.39-0.52-0.59-1.17-0.59-1.95v-32.03h4.24v32.03c0,0.78-0.2,1.44-0.61,1.95  C278.91,712.62,278.41,712.88,277.8,712.88z"/>
<path class="st7" d="M340.82,710.15c-0.03,0.78-0.24,1.44-0.65,1.95c-0.41,0.52-0.88,0.77-1.43,0.77c-0.63,0-1.12-0.26-1.49-0.77  c-0.37-0.52-0.55-1.17-0.55-1.95v-31.97c0-0.78,0.2-1.43,0.59-1.95c0.4-0.51,0.91-0.77,1.53-0.77c0.52,0,0.99,0.26,1.39,0.77  c0.41,0.52,0.61,1.17,0.61,1.95V710.15z"/>
<path class="st7" d="M398.33,712.88c-0.61,0-1.14-0.26-1.59-0.77c-0.46-0.52-0.68-1.17-0.68-1.95v-31.97c0-0.78,0.18-1.43,0.55-1.95  c0.37-0.51,0.83-0.77,1.38-0.77h10.69c1.36,0,2.61,0.48,3.75,1.41c1.14,0.95,2.05,2.25,2.75,3.91c0.69,1.66,1.04,3.57,1.04,5.75  c0,1.43-0.2,2.78-0.6,4.06c-0.41,1.28-0.95,2.42-1.63,3.42c-0.68,1-1.45,1.76-2.31,2.3l-0.42-1.07c0.78,0.43,1.47,1.01,2.05,1.74  c0.58,0.73,1.04,1.58,1.38,2.56c0.34,0.98,0.52,2.08,0.55,3.29c0.08,1.11,0.14,2.02,0.21,2.75s0.16,1.33,0.28,1.79  c0.13,0.46,0.36,0.82,0.68,1.07c0.87,0.66,0.89,1.37,0.85,1.6c-0.14,0.95-2.98,1.97-4.38,0.88c-0.57-0.45-0.66-1.23-0.98-2.75  c-0.25-1.17-0.38-2.73-0.38-4.65c0-0.89-0.1-1.65-0.3-2.27c-0.2-0.63-0.48-1.15-0.84-1.58c-0.35-0.43-0.77-0.73-1.25-0.91  c-0.48-0.18-1.01-0.27-1.59-0.27h-8.03l0.53-1.12v12.78c0,0.78-0.15,1.44-0.46,1.95C399.28,712.62,398.86,712.88,398.33,712.88z   M399.54,693.79h9.05c0.58-0.03,1.14-0.36,1.67-0.96c0.53-0.61,0.97-1.45,1.32-2.54c0.36-1.09,0.53-2.31,0.53-3.67  c0-1.71-0.36-3.14-1.08-4.3c-0.72-1.16-1.57-1.74-2.56-1.74h-8.87l0.42-1.34v15.66L399.54,693.79z"/>
<path class="st7" d="M535.82,675.46c1.6,0,3.01,0.49,4.22,1.47c1.22,0.98,2.24,2.33,3.07,4.06c0.83,1.73,1.46,3.72,1.87,5.99  c0.42,2.26,0.63,4.66,0.63,7.19c0,3.46-0.37,6.6-1.12,9.43c-0.74,2.84-1.84,5.09-3.29,6.77c-1.45,1.68-3.24,2.51-5.39,2.51h-8.01  c-0.48,0-0.88-0.26-1.2-0.77c-0.32-0.52-0.47-1.17-0.47-1.95v-31.97c0-0.78,0.16-1.43,0.47-1.95c0.32-0.51,0.72-0.77,1.2-0.77  H535.82z M535.5,707.75c1.53,0,2.79-0.62,3.76-1.87c0.97-1.25,1.68-2.9,2.13-4.95c0.45-2.05,0.67-4.3,0.67-6.76  c0-1.78-0.13-3.49-0.38-5.13c-0.25-1.64-0.64-3.09-1.18-4.36c-0.54-1.26-1.22-2.26-2.04-2.99c-0.82-0.73-1.81-1.1-2.97-1.1h-6.21  l0.3-0.43v28.12l-0.2-0.53H535.5z"/>
<path class="st7" d="M601.91,710.15c-0.03,0.78-0.25,1.44-0.65,1.95c-0.41,0.52-0.89,0.77-1.43,0.77c-0.63,0-1.13-0.26-1.49-0.77  c-0.37-0.52-0.55-1.17-0.55-1.95v-31.97c0-0.78,0.2-1.43,0.59-1.95c0.39-0.51,0.91-0.77,1.53-0.77c0.53,0,0.99,0.26,1.4,0.77  c0.41,0.52,0.61,1.17,0.61,1.95V710.15z"/>
<path class="st7" d="M665.6,712.88c-1.88,0-3.56-0.34-5.03-1.04c-1.47-0.69-2.87-1.86-4.2-3.5c-0.29-0.32-0.51-0.68-0.65-1.1  c-0.15-0.41-0.22-0.83-0.22-1.26c0-0.67,0.18-1.28,0.55-1.82c0.36-0.53,0.82-0.8,1.37-0.8c0.42,0,0.81,0.19,1.18,0.58  c1,1.25,2.04,2.19,3.12,2.84c1.09,0.64,2.36,0.96,3.83,0.96c1.05,0,2.01-0.23,2.88-0.69c0.88-0.46,1.58-1.09,2.1-1.87  c0.53-0.78,0.79-1.69,0.79-2.73c-0.03-1.28-0.3-2.33-0.82-3.16c-0.53-0.82-1.29-1.51-2.3-2.08c-1.01-0.57-2.22-1.03-3.63-1.39  c-1.31-0.36-2.49-0.82-3.54-1.39c-1.05-0.57-1.93-1.29-2.65-2.17c-0.72-0.87-1.28-1.92-1.67-3.13c-0.4-1.21-0.59-2.6-0.59-4.17  c0-2.17,0.42-4.05,1.26-5.64c0.84-1.59,1.98-2.81,3.42-3.67c1.44-0.85,3.06-1.28,4.87-1.28c1.65,0,3.19,0.34,4.63,1.04  c1.44,0.69,2.6,1.63,3.49,2.81c0.63,0.75,0.94,1.55,0.94,2.41c0,0.67-0.19,1.28-0.57,1.82c-0.38,0.53-0.82,0.8-1.32,0.8  c-0.36,0-0.68-0.14-0.94-0.42c-0.42-0.61-0.98-1.15-1.69-1.63c-0.71-0.48-1.46-0.88-2.26-1.2c-0.8-0.32-1.56-0.48-2.3-0.48  c-1.18,0-2.19,0.22-3.03,0.67c-0.84,0.44-1.48,1.05-1.93,1.82c-0.44,0.77-0.67,1.68-0.67,2.75c0,1.21,0.26,2.2,0.77,2.97  c0.51,0.77,1.22,1.39,2.14,1.87c0.92,0.48,1.96,0.92,3.14,1.31c1.44,0.43,2.73,0.91,3.87,1.44c1.14,0.54,2.1,1.22,2.88,2.06  c0.79,0.84,1.39,1.88,1.81,3.13c0.42,1.25,0.63,2.8,0.63,4.65c0,2.14-0.44,4.01-1.33,5.62c-0.89,1.6-2.06,2.85-3.51,3.74  C669,712.44,667.38,712.88,665.6,712.88z"/>
<path class="st7" d="M723.71,680.59c-0.55,0-1.02-0.24-1.42-0.72s-0.59-1.1-0.59-1.84c0-0.79,0.2-1.41,0.59-1.87  s0.86-0.69,1.42-0.69h17.83c0.58,0,1.05,0.24,1.43,0.72c0.38,0.48,0.57,1.1,0.57,1.85c0,0.78-0.19,1.4-0.57,1.87  c-0.38,0.46-0.86,0.69-1.43,0.69H723.71z M732.62,712.88c-0.63,0-1.14-0.26-1.53-0.77c-0.4-0.52-0.59-1.17-0.59-1.95v-32.03h4.24  v32.03c0,0.78-0.2,1.44-0.61,1.95C733.72,712.62,733.22,712.88,732.62,712.88z"/>
<path class="st7" d="M800.98,710.15c-0.03,0.78-0.25,1.44-0.65,1.95c-0.41,0.52-0.89,0.77-1.43,0.77c-0.63,0-1.13-0.26-1.49-0.77  c-0.37-0.52-0.55-1.17-0.55-1.95v-31.97c0-0.78,0.2-1.43,0.59-1.95c0.39-0.51,0.91-0.77,1.53-0.77c0.53,0,0.99,0.26,1.4,0.77  c0.41,0.52,0.61,1.17,0.61,1.95V710.15z"/>
<path class="st7" d="M870.52,675.46c0.36,0,0.66,0.24,0.89,0.72c0.23,0.48,0.34,1.08,0.34,1.79v32.19c0,0.78-0.13,1.44-0.39,1.95  c-0.26,0.52-0.6,0.77-0.99,0.77c-0.2,0-0.4-0.07-0.6-0.21c-0.2-0.14-0.35-0.34-0.46-0.59l-11.2-28.44l0.63-0.75v27.54  c0,0.68-0.12,1.26-0.36,1.74c-0.23,0.48-0.53,0.72-0.9,0.72c-0.38,0-0.68-0.24-0.91-0.72c-0.23-0.48-0.34-1.06-0.34-1.74v-32.24  c0-0.78,0.13-1.43,0.4-1.95c0.26-0.51,0.59-0.77,0.99-0.77c0.2,0,0.41,0.08,0.64,0.24c0.23,0.16,0.4,0.4,0.51,0.72l10.92,27.91  l-0.41,0.75v-27.11c0-0.71,0.11-1.31,0.34-1.79C869.83,675.7,870.14,675.46,870.52,675.46z"/>
<path class="st7" d="M923.24,680.59c-0.55,0-1.02-0.24-1.42-0.72c-0.39-0.48-0.59-1.1-0.59-1.84c0-0.79,0.2-1.41,0.59-1.87  c0.39-0.46,0.86-0.69,1.42-0.69h17.83c0.58,0,1.05,0.24,1.43,0.72s0.57,1.1,0.57,1.85c0,0.78-0.19,1.4-0.57,1.87  s-0.86,0.69-1.43,0.69H923.24z M932.15,712.88c-0.63,0-1.14-0.26-1.53-0.77c-0.4-0.52-0.59-1.17-0.59-1.95v-32.03h4.24v32.03  c0,0.78-0.2,1.44-0.61,1.95C933.25,712.62,932.75,712.88,932.15,712.88z"/>
<path class="st7" d="M1016.1,693.63c0,2.71-0.27,5.23-0.79,7.57c-0.53,2.33-1.27,4.38-2.23,6.12c-0.96,1.75-2.09,3.11-3.4,4.09  c-1.31,0.98-2.74,1.47-4.3,1.47s-2.98-0.49-4.28-1.47c-1.3-0.98-2.42-2.34-3.38-4.09c-0.96-1.74-1.7-3.79-2.23-6.12  c-0.53-2.33-0.79-4.86-0.79-7.57c0-2.71,0.26-5.23,0.79-7.57s1.27-4.38,2.23-6.12c0.96-1.75,2.09-3.11,3.38-4.09  c1.3-0.98,2.72-1.47,4.28-1.47s2.99,0.49,4.3,1.47c1.3,0.98,2.44,2.34,3.4,4.09c0.96,1.74,1.7,3.79,2.23,6.12  C1015.83,688.4,1016.1,690.93,1016.1,693.63z M1012.69,693.63c0-2.64-0.32-5.01-0.95-7.11c-0.63-2.1-1.49-3.76-2.57-4.97  c-1.09-1.21-2.34-1.82-3.78-1.82c-1.41,0-2.66,0.61-3.76,1.82s-1.95,2.86-2.56,4.94c-0.61,2.08-0.92,4.46-0.92,7.14  c0,2.64,0.31,5.01,0.92,7.11c0.61,2.1,1.47,3.76,2.56,4.97s2.35,1.82,3.76,1.82c1.43,0,2.69-0.61,3.78-1.82  c1.08-1.21,1.94-2.87,2.57-4.97C1012.37,698.64,1012.69,696.27,1012.69,693.63z"/>
<circle class="st7" cx="337.11" cy="320.34" r="29.41"/>
<circle class="st7" cx="510.86" cy="320.34" r="29.41"/>
</svg>