<?xml version="1.0" encoding="UTF-8"?>
<!DOCTYPE svg PUBLIC "-//W3C//DTD SVG 1.1//EN" "http://www.w3.org/Graphics/SVG/1.1/DTD/svg11.dtd">
<!-- Creator: CorelDRAW X6 -->
<svg xmlns="http://www.w3.org/2000/svg" xml:space="preserve" width="4.93055in" height="2.95833in" version="1.1" style="shape-rendering:geometricPrecision; text-rendering:geometricPrecision; image-rendering:optimizeQuality; fill-rule:evenodd; clip-rule:evenodd"
viewBox="0 0 4931 2958"
 xmlns:xlink="http://www.w3.org/1999/xlink">
 <defs>
  <style type="text/css">
   <![CDATA[
    .fil1 {fill:#FEFEFE;fill-rule:nonzero}
    .fil0 {fill:#240253;fill-rule:nonzero}
   ]]>
  </style>
 </defs>
 <g id="Capa_x0020_1">
  <metadata id="CorelCorpID_0Corel-Layer"/>
  <g id="_318295592">
   <g>
    <path class="fil0" d="M2177 1426c0,38 16,50 74,50 57,0 84,-17 121,-95l14 0 -14 122 -357 0 0 -14c54,-13 59,-25 59,-76l0 -298c0,-42 -10,-54 -59,-66l0 -13 222 0 0 13c-47,12 -60,22 -60,63l0 314z"/>
   </g>
   <g>
    <g>
     <path class="fil0" d="M2536 1438c0,30 15,47 49,51l0 14 -190 0 0 -14c41,-8 51,-19 51,-57l0 -161c0,-36 -11,-47 -55,-56l0 -13 131 -11 14 0 0 247z"/>
    </g>
    <g>
     <path class="fil0" d="M2491 1003c29,0 52,23 52,52 0,29 -23,53 -52,53 -29,0 -53,-24 -53,-53 0,-29 24,-52 53,-52z"/>
    </g>
   </g>
   <g>
    <g>
     <path class="fil0" d="M2812 1231c48,6 80,55 80,124 0,82 -31,123 -80,135l0 24c130,-8 180,-81 180,-169 0,-87 -63,-155 -144,-155 -12,0 -24,1 -36,4l0 37z"/>
    </g>
    <g>
     <path class="fil0" d="M2732 1266c31,-27 47,-35 71,-35 3,0 6,0 9,0l0 -37c-28,8 -54,24 -80,51l0 -242 -13 0 -122 9 0 13c28,5 45,20 45,45l0 433c46,9 90,12 147,12 8,0 16,-1 23,-1l0 -24c-10,2 -20,3 -32,3 -36,0 -48,-16 -48,-50l0 -177z"/>
    </g>
   </g>
   <g>
    <g>
     <path class="fil0" d="M3190 1211c36,2 61,41 64,96l-64 0 0 19 162 0c-12,-83 -73,-136 -158,-136 -1,0 -3,0 -4,0l0 21z"/>
    </g>
    <g>
     <path class="fil0" d="M3190 1515l0 -49c13,6 27,10 41,10 43,0 78,-22 107,-66l14 0c-28,65 -89,105 -161,105l-1 0z"/>
    </g>
    <g>
     <path class="fil0" d="M3124 1307c3,-57 27,-96 64,-96 1,0 1,0 2,0l0 -21c-93,2 -163,72 -163,164 0,92 69,160 163,161l0 -49c-39,-19 -69,-67 -66,-140l66 0 0 -19 -66 0z"/>
    </g>
   </g>
   <g>
    <g>
     <path class="fil0" d="M2487 1989c35,1 61,39 64,93l-64 0 0 18 159 0c-10,-81 -71,-132 -155,-132 -1,0 -3,0 -4,0l0 21z"/>
    </g>
    <g>
     <path class="fil0" d="M2487 2286l0 -48c12,6 26,9 40,9 43,0 78,-21 106,-64l13 0c-26,63 -87,103 -158,103l-1 0z"/>
    </g>
    <g>
     <path class="fil0" d="M2422 2082c3,-56 27,-93 63,-93 1,0 1,0 2,0l0 -21c-91,2 -160,71 -160,160 0,90 68,157 160,158l0 -48c-39,-19 -68,-65 -65,-138l65 0 0 -18 -65 0z"/>
    </g>
   </g>
   <g>
    <path class="fil0" d="M3641 1306c-27,-25 -48,-39 -68,-39 -27,0 -44,11 -67,43l0 123c0,36 7,47 51,56l0 14 -192 0 0 -14c40,-9 50,-21 50,-56l0 -159c0,-38 -16,-55 -55,-59l0 -13 132 -12 14 0 0 96 1 0c30,-66 63,-96 100,-96 20,0 39,9 54,25l-20 91z"/>
   </g>
   <g>
    <path class="fil0" d="M3729 2080c-27,-25 -48,-38 -68,-38 -27,0 -44,11 -67,42l0 122c0,36 7,47 51,56l0 13 -192 0 0 -13c40,-10 50,-22 50,-56l0 -157c0,-38 -16,-56 -55,-59l0 -13 132 -12 14 0 0 95 1 0c30,-65 63,-95 100,-95 20,0 39,9 54,25l-20 90z"/>
   </g>
   <g>
    <path class="fil0" d="M4149 1202l0 13c38,8 47,32 20,96l-42 97 -63 -132c-19,-38 -19,-56 15,-61l0 -13 -174 0 -5 0 -87 0 0 -117 -15 0c-43,55 -92,102 -130,126l0 15 54 0 0 193c0,69 46,96 103,96 44,0 74,-16 96,-54l-9 -9c-15,17 -28,24 -44,24 -42,0 -55,-28 -55,-77l0 -173 80 0c44,0 57,16 76,56l110 233c-36,99 -68,139 -124,139 -12,0 -22,-1 -41,-8l-18 91c11,2 17,2 25,2 63,0 97,-26 129,-100l152 -346c24,-56 34,-67 72,-78l0 -13 -125 0z"/>
   </g>
   <g>
    <g>
     <path class="fil0" d="M1861 1252c-4,-6 -15,-1 -15,-1l-178 66c-14,-34 -30,-66 -48,-95l58 -157c0,0 7,-16 0,-20 -6,-3 -17,7 -17,7l-105 86c-41,-44 -88,-79 -144,-104 -20,-9 -41,-17 -64,-23l-32 -125c0,0 -3,-12 -11,-12 -8,0 -11,12 -11,12l-21 110c-22,-3 -46,-5 -70,-5 -78,0 -147,15 -208,42 -26,12 -50,26 -73,42 -4,2 -8,5 -11,8 -22,-55 -39,-101 -42,-114 12,-11 37,-51 43,-78 9,-37 6,-55 -3,-82 -6,-21 -19,-40 -19,-53 1,-10 6,-17 11,-21 -3,-14 -12,-20 -22,-22 -10,-1 -18,2 -26,2 -3,-4 -7,-3 -4,-17 5,-22 46,-32 80,-45 43,-16 67,-47 68,-96 1,-36 -19,-63 -44,-75 -5,15 -26,34 -40,42 -14,8 -34,11 -48,8 3,-27 -10,-49 -29,-58 -6,11 -29,27 -64,26 -35,-2 -37,-10 -86,-10 -70,0 -127,43 -134,104 -5,40 11,74 22,91 -9,7 -29,26 -33,32 -5,-6 -18,-13 -35,-3 4,9 4,20 1,30 -3,10 -28,59 -31,98 -5,68 34,113 67,126 -7,11 -9,23 -4,32 4,7 10,13 24,13 -8,8 -11,22 -6,35 6,14 23,35 37,35 0,12 5,41 8,53 -5,9 -10,17 -9,34 1,18 12,33 27,36 4,8 6,18 11,24 5,6 10,13 21,20 11,7 23,13 37,13 15,0 28,1 34,-2 1,5 2,43 4,86 -37,101 -55,219 -55,345 0,227 64,428 188,558 0,0 7,9 27,22 0,0 38,-66 97,-141 15,-19 32,-38 50,-55 29,-25 57,-48 84,-68 76,-51 164,-91 245,-107 -93,48 -146,73 -233,148 -55,48 -144,131 -204,246 13,10 30,20 50,22 12,-15 78,-135 178,-231 204,-191 444,-235 569,-233 7,-51 11,-105 11,-161 0,-91 -9,-178 -28,-257l149 -167c0,0 11,-10 6,-16z"/>
    </g>
    <g>
     <path class="fil1" d="M747 1177c-9,-5 -33,-17 -52,-16 -19,1 -36,4 -51,14 -7,-4 -9,-13 -5,-23 4,-10 11,-12 11,-12l-6 -95c0,0 27,-19 34,-21 7,-2 10,-8 10,-15 12,8 30,26 39,39 9,13 14,26 15,42 0,15 0,33 -3,52 6,5 12,9 13,17 0,8 -2,11 -5,18z"/>
    </g>
    <g>
     <path class="fil1" d="M1613 1473c-1,-19 -23,-69 -36,-80l226 -100 -190 180z"/>
    </g>
    <g>
     <path class="fil1" d="M994 1099l191 173c-19,10 -46,38 -54,61l-137 -234z"/>
    </g>
    <g>
     <path class="fil1" d="M1106 1442c-7,10 -9,16 -11,29 -3,12 -1,19 0,29l-58 -41c1,-13 -3,-36 -4,-47 0,-2 -1,-4 -1,-5l74 35z"/>
    </g>
    <g>
     <path class="fil1" d="M783 1459c-4,-7 -20,-359 -21,-372l19 -13 0 -4c-14,-1 -30,-6 -35,-14l-5 -108c-19,-1 -38,-7 -46,-14 -9,-9 -16,-21 -6,-40 10,6 37,14 61,14 5,0 16,12 22,14 7,3 19,9 24,12 5,2 8,14 10,18 1,4 176,457 179,463 2,5 13,81 13,87 1,5 27,66 32,72 -23,-1 -61,13 -92,43 -31,30 -58,95 -64,125 -2,-16 -87,-277 -91,-283z"/>
    </g>
    <g>
     <path class="fil1" d="M1005 1892c-8,70 -25,131 -50,174 -17,27 -63,84 -79,105 18,-35 31,-119 30,-184 -1,-42 -14,-136 -2,-198 12,-66 31,-104 75,-145 23,-21 69,-47 136,-29l53 101c-28,-6 -66,-1 -92,19 -47,36 -63,85 -71,157z"/>
    </g>
    <g>
     <path class="fil1" d="M1010 2030c13,-30 30,-113 35,-142 6,-35 12,-88 55,-123 21,-18 55,-20 69,-16l61 124c5,13 23,18 35,17 -57,18 -200,86 -255,140z"/>
    </g>
    <g>
     <path class="fil1" d="M1527 1635c-10,15 -7,30 -1,40 6,11 38,71 38,71 10,27 18,40 28,58 17,0 36,-1 56,0 -21,-48 -70,-140 -70,-140l-3 -74c-14,9 -38,30 -48,45z"/>
    </g>
    <g>
     <path class="fil1" d="M1268 1241c24,-4 78,1 95,9l-55 -311 -40 302z"/>
    </g>
    <g>
     <path class="fil1" d="M1150 1374c-5,20 -4,43 1,55 -16,13 -21,24 -24,38 -2,11 0,27 9,36 -1,-14 9,-31 17,-41 9,-12 23,-17 36,-25l2 26c-12,7 -27,23 -28,31l1 43 32 -20 7 13 -12 76 18 -3 34 14 -33 27 0 11c0,0 5,-6 17,-6 11,1 41,14 41,14l-1 7 -13 0c-13,0 -45,0 -45,0 -2,7 5,13 9,16 8,-2 16,-6 20,-6 4,0 14,3 23,4l-10 14c0,0 -6,4 -16,2 -5,-1 -10,6 -10,13 0,6 4,23 4,23 5,24 30,19 33,19 16,-2 68,-20 68,-20l-50 70 22 74c33,-13 131,-48 238,-66 -12,-19 -14,-27 -28,-55l-55 -126 8 -18c12,4 30,-4 42,-14 12,-10 27,-27 32,-38 -8,-5 -14,-4 -21,1 -6,4 -11,13 -20,8 -10,-4 -5,-15 -4,-24 1,-10 -12,-10 -20,-3 -9,8 -27,5 -39,-7 -12,-12 -70,-60 -91,-72 -29,-17 -69,-22 -99,-16 -17,3 -29,10 -36,7l-21 -33 3 -2c8,3 15,9 25,6 10,-3 41,-11 69,-11 44,-1 97,15 120,25 1,28 58,64 84,67 22,3 35,-3 48,-10l-56 -49 30 -37c0,0 46,44 53,53 2,-5 0,-14 -1,-20 -3,-14 -38,-56 -98,-101 -47,-36 -116,-71 -173,-71 -96,0 -135,66 -142,101z"/>
    </g>
    <g>
     <path class="fil1" d="M806 952c-2,-4 -5,-16 -10,-18 -5,-3 -17,-9 -24,-12 -6,-2 -17,-14 -22,-14 -24,0 -51,-8 -61,-14 -10,19 -3,31 6,40 8,7 27,13 46,14l5 108c5,8 21,13 35,14l0 4 -19 13c1,13 17,365 21,372 4,6 89,267 91,283 6,-30 33,-95 64,-125 31,-30 69,-44 92,-43 -5,-6 -31,-67 -32,-72 0,-6 -11,-82 -13,-87 -3,-6 -178,-459 -179,-463z"/>
    </g>
    <g>
     <path class="fil1" d="M694 865c49,1 73,21 84,32 2,-17 -1,-31 -16,-44 -13,-10 -36,-20 -71,-20 -23,0 -46,7 -61,19 -13,12 -15,24 -12,43 4,-13 35,-30 76,-30z"/>
    </g>
    <g>
     <path class="fil1" d="M606 608c-1,18 4,38 12,50 5,6 17,19 26,19 12,-1 24,-25 53,-24 18,1 31,28 47,29 12,0 19,-12 31,-13 11,-1 14,4 21,10 4,-10 11,-17 27,-29 19,-14 86,-28 114,-53 15,-13 18,-36 13,-52 -10,15 -40,31 -69,32 -15,1 -49,-6 -62,-12 6,-11 8,-23 3,-34 -9,7 -50,11 -66,11 -16,0 -47,-7 -71,-5 -53,3 -77,40 -79,71z"/>
    </g>
    <g>
     <path class="fil1" d="M697 772c115,3 166,54 168,98 6,-13 5,-25 4,-40 0,-11 -18,-43 -19,-54 0,-11 3,-18 5,-28 -8,1 -33,11 -44,3 -11,-10 -3,-33 -19,-39 -15,-6 -39,12 -54,10 -15,-2 -28,-23 -44,-23 -16,0 -24,20 -44,24 -15,3 -33,-6 -42,-5 -10,1 -16,8 -20,18 -5,9 -8,13 -20,16 -9,2 -22,-6 -29,-4 5,5 8,25 3,37 -6,16 -18,32 -19,50 -2,16 4,24 8,36 -3,-60 66,-101 166,-99z"/>
    </g>
    <g>
     <path class="fil1" d="M625 991c-8,1 -25,15 -33,28 2,9 12,29 21,35 2,-10 13,-25 18,-29 7,-5 14,-9 20,-11 6,-3 8,-6 8,-13 0,-6 -1,-9 -4,-16 6,-1 17,0 20,-5 4,-5 6,-12 6,-18 0,-7 -3,-8 -10,-9 -6,0 -25,-1 -35,0 0,0 15,-8 19,-10 5,-2 6,-6 7,-10 1,-4 0,-12 -2,-22 -21,1 -60,21 -70,29l8 20 -14 -1c-3,10 -1,26 3,34 13,-2 28,-3 38,-2z"/>
    </g>
    <g>
     <path class="fil0" d="M1172 1416c11,-11 33,-27 47,-35l-18 -42c-12,12 -38,44 -29,77z"/>
    </g>
    <g>
     <path class="fil0" d="M1245 1375c24,-6 82,-8 99,4l10 -57c-17,-8 -42,-14 -65,-14 -23,0 -48,7 -61,16l17 51z"/>
    </g>
    <g>
     <path class="fil0" d="M1457 1430l28 -38c-10,-10 -74,-49 -92,-58l-20 54c14,4 60,27 84,42z"/>
    </g>
    <g>
     <path class="fil0" d="M1229 1522c11,3 23,15 30,24l18 -4 -8 -12c0,0 11,-5 24,-5 15,-1 29,2 36,8l37 -9 5 -7c-26,-21 -62,-41 -96,-34 -22,5 -46,19 -46,19l0 20z"/>
    </g>
    <g>
     <path class="fil1" d="M1450 1289c21,7 67,46 78,54l115 -245 -193 191z"/>
    </g>
   </g>
   <g>
    <g>
     <g>
      <polygon class="fil0" points="2021,1672 2021,1652 3848,1652 3848,1672 "/>
     </g>
    </g>
    <g>
     <g>
      <polygon class="fil0" points="4092,1672 4092,1652 4472,1652 4472,1672 "/>
     </g>
    </g>
   </g>
   <g>
    <path class="fil0" d="M2138 2280c-28,0 -73,-10 -97,-17 -7,6 -9,9 -12,15 -11,0 -19,0 -19,0l0 -133c0,0 10,0 18,0 14,47 53,108 114,108 54,0 84,-20 84,-56 0,-59 -61,-89 -105,-111 -51,-26 -107,-69 -108,-140 0,-81 60,-145 163,-134 25,2 39,8 70,9 9,2 12,-8 12,-8l17 0 0 120c0,0 -8,0 -17,0 -12,-37 -45,-92 -96,-92 -48,0 -80,24 -80,60 0,34 50,71 86,89l50 29c44,33 82,52 83,139 2,79 -55,122 -163,122z"/>
   </g>
   <g>
    <path class="fil0" d="M4244 2280c-43,-1 -38,-10 -70,-9 -8,1 -15,5 -17,9 -8,0 -17,0 -17,0l0 -114c0,0 11,0 17,0 11,34 36,81 82,89 42,6 66,-9 66,-36 0,-37 -48,-54 -80,-69 -40,-17 -86,-33 -86,-94 0,-55 46,-91 125,-84 18,2 30,4 54,5 8,0 9,-6 9,-6l19 0 -1 91c0,0 -7,0 -16,0 -9,-25 -30,-67 -76,-69 -36,-2 -54,11 -53,35 0,22 25,34 69,48 55,18 105,50 92,123 -9,49 -38,83 -117,81z"/>
   </g>
   <g>
    <path class="fil0" d="M3386 2194c0,66 46,59 46,59l1 20c0,0 -74,2 -137,7 0,-12 1,-45 1,-51 0,-4 -2,-6 -6,-6 -11,11 -31,63 -112,58 -62,0 -89,-31 -89,-95 0,0 -2,-55 0,-128 0,-69 -47,-60 -47,-60l0 -19c0,0 56,-3 84,-5 28,-2 48,-8 51,-8 0,27 1,47 1,74l0 125c0,36 8,66 56,66 21,0 34,-12 40,-17 5,-4 21,-26 21,-33l0 -142c1,-42 -42,-43 -42,-43l1 -18c0,0 94,0 129,-10 1,37 2,226 2,226z"/>
   </g>
   <g>
    <g>
     <path class="fil0" d="M3938 1995c56,4 78,72 74,149 -5,70 -27,119 -81,116l0 24c97,0 181,-51 181,-159 0,-104 -84,-157 -178,-157 -1,0 -2,0 -3,0l0 26c2,0 5,0 7,1z"/>
    </g>
    <g>
     <path class="fil0" d="M3931 2260c-1,0 -2,0 -2,0 -58,-4 -86,-67 -79,-150 6,-81 40,-115 81,-116l0 -26c-92,1 -180,59 -179,164 0,102 83,152 177,152 1,0 1,0 2,0l0 -24z"/>
    </g>
   </g>
   <g>
    <g>
     <path class="fil0" d="M2893 2263c-15,-2 -39,-2 -63,-4l0 77c8,0 17,1 26,2 65,9 114,41 110,71 -5,31 -60,48 -125,39 -4,0 -7,-1 -11,-2l0 52c1,0 1,0 2,0 43,0 114,-13 146,-45 24,-23 37,-47 40,-69l0 -27c-8,-50 -61,-88 -125,-94z"/>
    </g>
    <g>
     <path class="fil0" d="M2830 2202c110,1 154,-58 151,-114 -3,-46 -29,-54 -31,-61l67 0 0 -52c0,0 -104,1 -124,1 -19,-5 -41,-9 -63,-10l0 29c35,1 64,32 64,97 0,60 -27,83 -58,83 -2,0 -4,0 -6,0l0 27z"/>
    </g>
    <g>
     <path class="fil0" d="M2830 2259c-37,-3 -75,-10 -77,-30 -3,-21 47,-29 59,-28 6,1 12,1 18,1l0 -27c-37,-4 -64,-41 -64,-100 0,-56 31,-80 62,-80 1,0 1,0 2,0l0 -29c-2,0 -3,0 -5,0 -98,0 -147,59 -147,122 1,67 47,84 85,99 4,7 -4,7 -14,11 -6,2 -70,5 -70,59 -1,51 49,55 76,64 7,1 6,7 -5,8 -10,1 -39,10 -54,19 -31,18 -38,46 -38,64 0,46 65,85 172,86l0 -52c-59,-11 -102,-41 -98,-69 3,-26 45,-43 98,-41l0 -77z"/>
    </g>
   </g>
  </g>
 </g>
</svg>
